 <svg  version="1.0" xmlns="http://www.w3.org/2000/svg"  width="450.000000pt" height="450.000000pt" viewBox="0 0 450.000000 450.000000"  preserveAspectRatio="xMidYMid meet">  <g transform="translate(0.000000,450.000000) scale(0.050000,-0.050000)" fill="#f04931" stroke="none"> <path d="M3506 5581 l-744 -733 294 -294 295 -294 174 175 175 176 -115 114 -115 115 414 415 413 415 -19 290 c-10 160 -21 305 -23 322 -3 21 -276 -234 -749 -701z"/> <path d="M4625 5975 l-305 -306 175 -174 176 -175 129 130 129 130 413 -412 414 -413 332 17 333 18 -746 745 -745 745 -305 -305z"/> <path d="M5560 4550 l-169 -170 124 -125 125 -126 -412 -409 -411 -410 14 -320 c7 -176 17 -324 22 -329 5 -5 341 323 748 730 l739 739 -295 295 c-162 162 -299 295 -305 295 -6 0 -87 -76 -180 -170z"/> <path d="M3060 4218 c-126 -9 -259 -19 -295 -22 -64 -6 -46 -26 675 -746 l740 -740 305 305 305 305 -175 175 -175 174 -125 -124 c-69 -69 -135 -125 -146 -125 -11 0 -204 185 -429 410 -225 226 -419 409 -430 407 -11 -1 -123 -10 -250 -19z"/> </g> </svg> 